<svg width="16" height="16" viewBox="0 0 16 16" fill="none" xmlns="http://www.w3.org/2000/svg">
<path d="M9.30862 7.30841C9.15069 7.30841 8.99276 7.24826 8.87246 7.12765C7.91039 6.16556 6.34497 6.16525 5.38258 7.12765C5.14199 7.36856 4.75086 7.36856 4.51027 7.12765C4.26936 6.88674 4.26936 6.49623 4.51027 6.25532C5.95354 4.81171 8.30182 4.81202 9.74478 6.25532C9.98568 6.49623 9.98568 6.88674 9.74478 7.12765C9.62448 7.24826 9.46624 7.30841 9.30862 7.30841Z" fill="#333333"/>
<path d="M8.87236 10.8277C7.92448 10.8277 6.97659 10.4668 6.25511 9.74528C6.01421 9.50437 6.01421 9.11385 6.25511 8.87294C6.49571 8.63203 6.88683 8.63203 7.12743 8.87294C8.0895 9.83504 9.65492 9.83535 10.6173 8.87294C10.8579 8.63203 11.249 8.63203 11.4896 8.87294C11.7305 9.11385 11.7305 9.50437 11.4896 9.74528C10.7678 10.4668 9.81994 10.8277 8.87236 10.8277Z" fill="#333333"/>
<path d="M11.0532 9.92565C10.8953 9.92565 10.7373 9.8655 10.617 9.7449C10.3761 9.50399 10.3761 9.11347 10.617 8.87256L14.0631 5.42641C14.3037 5.1855 14.6948 5.1855 14.9354 5.42641C15.1763 5.66732 15.1763 6.05783 14.9354 6.29874L11.4894 9.7449C11.3691 9.8655 11.2111 9.92565 11.0532 9.92565Z" fill="#333333"/>
<path d="M5.8625 15.1165C5.70457 15.1165 5.54664 15.0564 5.42634 14.9358C5.18544 14.6949 5.18544 14.3044 5.42634 14.0635L7.35266 12.1371C7.59325 11.8962 7.98438 11.8962 8.22497 12.1371C8.46588 12.378 8.46588 12.7685 8.22497 13.0094L6.29866 14.9358C6.17836 15.0564 6.02043 15.1165 5.8625 15.1165Z" fill="#333333"/>
<path d="M1.50035 10.7542C1.34242 10.7542 1.18449 10.6941 1.06419 10.5734C0.823288 10.3325 0.823288 9.94202 1.06419 9.70111L4.51027 6.25527C4.75117 6.01436 5.14199 6.01436 5.38259 6.25527C5.62349 6.49618 5.62349 6.88669 5.38259 7.1276L1.93651 10.5734C1.8159 10.6937 1.65797 10.7542 1.50035 10.7542Z" fill="#333333"/>
<path d="M8.21086 4.04392C8.05293 4.04392 7.89531 3.98377 7.7747 3.86347C7.5338 3.62256 7.5338 3.23205 7.7747 2.99083L9.70101 1.06417C9.94192 0.823256 10.3324 0.823256 10.5736 1.06417C10.8145 1.30508 10.8145 1.69559 10.5736 1.93681L8.64733 3.86347C8.52672 3.98346 8.36848 4.04392 8.21086 4.04392Z" fill="#333333"/>
<path d="M3.68143 16C2.72737 16 1.77332 15.6452 1.06418 14.9358C-0.354725 13.5168 -0.354725 11.1198 1.06418 9.70082C1.30477 9.45991 1.69589 9.45991 1.93649 9.70082C2.1774 9.94173 2.1774 10.3322 1.93649 10.5732C0.990763 11.5189 0.990763 13.1174 1.93649 14.0631C2.88222 15.0089 4.48064 15.0089 5.42637 14.0631C5.66697 13.8222 6.05809 13.8222 6.29869 14.0631C6.53959 14.304 6.53959 14.6945 6.29869 14.9354C5.58954 15.6452 4.63549 16 3.68143 16Z" fill="#333333"/>
<path d="M14.4993 6.47958C14.3414 6.47958 14.1835 6.41943 14.0632 6.29882C13.8223 6.05791 13.8223 5.6674 14.0632 5.42649C15.0089 4.48074 15.0089 2.88228 14.0632 1.93653C13.1174 0.990784 11.519 0.990784 10.5733 1.93653C10.3327 2.17744 9.94157 2.17744 9.70097 1.93653C9.46007 1.69562 9.46007 1.30511 9.70097 1.0642C11.1199 -0.354733 13.5169 -0.354733 14.9358 1.0642C16.3547 2.48313 16.3547 4.8802 14.9358 6.29913C14.8152 6.41943 14.6573 6.47958 14.4993 6.47958Z" fill="#333333"/>
</svg>
